<svg xmlns="http://www.w3.org/2000/svg" viewBox="0 0 64 64"><title>consumer discuss</title><g id="consumer_discuss" data-name="consumer discuss"><path d="M32,46a7,7,0,0,1-7-7V37a7,7,0,0,1,14,0v2A7,7,0,0,1,32,46Zm0-14a5,5,0,0,0-5,5v2a5,5,0,0,0,10,0V37A5,5,0,0,0,32,32Z"/><path d="M18,49a6,6,0,0,1-6-6V41a6,6,0,0,1,12,0v2A6,6,0,0,1,18,49Zm0-12a4,4,0,0,0-4,4v2a4,4,0,0,0,8,0V41A4,4,0,0,0,18,37Z"/><path d="M44,60H20a1,1,0,0,1-1-1.21l1.11-5.2a11.92,11.92,0,0,1,2-4.48A12.13,12.13,0,0,1,39.63,46.7a12.62,12.62,0,0,1,2.27,2.41,12.06,12.06,0,0,1,2,4.48L45,58.79A1,1,0,0,1,44,60ZM21.24,58H42.76l-.85-4a10.15,10.15,0,0,0-1.64-3.74,10.33,10.33,0,0,0-1.9-2,10.12,10.12,0,0,0-14.63,2A10,10,0,0,0,22.09,54Z"/><path d="M20,60H9a1,1,0,0,1-1-1.2l.84-4.09A9.48,9.48,0,0,1,18,47a9,9,0,0,1,5.53,1.9,1,1,0,0,1,.2,1.37A10.15,10.15,0,0,0,22.09,54L21,59.21A1,1,0,0,1,20,60Zm-9.77-2h9l.94-4.41A12.15,12.15,0,0,1,21.55,50,7,7,0,0,0,18,49a7.48,7.48,0,0,0-7.18,6.11Z"/><path d="M46,49a6,6,0,0,1-6-6V41a6,6,0,0,1,12,0v2A6,6,0,0,1,46,49Zm0-12a4,4,0,0,0-4,4v2a4,4,0,0,0,8,0V41A4,4,0,0,0,46,37Z"/><path d="M55,60H44a1,1,0,0,1-1-.79L41.91,54a10.15,10.15,0,0,0-1.64-3.74,1,1,0,0,1,.2-1.37A9,9,0,0,1,46,47a9.17,9.17,0,0,1,5.89,2.17,9.84,9.84,0,0,1,3.25,5.54L56,58.8A1,1,0,0,1,55,60ZM44.81,58h9l-.59-2.89A7.84,7.84,0,0,0,50.6,50.7,7.07,7.07,0,0,0,46,49a7,7,0,0,0-3.55,1,12.15,12.15,0,0,1,1.42,3.62Z"/><path d="M25,60l-.2,0A1,1,0,0,1,24,58.8l1-5a1,1,0,0,1,2,.4l-1,5A1,1,0,0,1,25,60Z"/><path d="M39.12,60a1,1,0,0,1-1-.75l-1.24-4.95a1,1,0,0,1,.73-1.21,1,1,0,0,1,1.21.72l1.24,4.95a1,1,0,0,1-.73,1.21A1,1,0,0,1,39.12,60Z"/><path d="M13,60a1,1,0,0,1-.24,0A1,1,0,0,1,12,58.76l1-4a1,1,0,0,1,1.94.48l-1,4A1,1,0,0,1,13,60Z"/><path d="M51,60a1,1,0,0,1-1-.76l-1-4A1,1,0,1,1,51,54.76l1,4A1,1,0,0,1,51.24,60,1,1,0,0,1,51,60Z"/><path d="M59,60H5a1,1,0,0,1,0-2H59a1,1,0,0,1,0,2Z"/><path d="M46,30a1,1,0,0,1-.89-.55L42.38,24H34.62l-1.73,3.45a1,1,0,0,1-1.78,0L29.38,24H21.62l-2.73,5.45a1,1,0,0,1-1.78,0L14.38,24H11a7,7,0,0,1-7-7V11a7,7,0,0,1,7-7H53a7,7,0,0,1,7,7v6a7,7,0,0,1-7,7H49.62l-2.73,5.45A1,1,0,0,1,46,30ZM34,22h9a1,1,0,0,1,.89.55L46,26.76l2.11-4.21A1,1,0,0,1,49,22h4a5,5,0,0,0,5-5V11a5,5,0,0,0-5-5H11a5,5,0,0,0-5,5v6a5,5,0,0,0,5,5h4a1,1,0,0,1,.89.55L18,26.76l2.11-4.21A1,1,0,0,1,21,22h9a1,1,0,0,1,.89.55L32,24.76l1.11-2.21A1,1,0,0,1,34,22Z"/><path d="M20.4,18.34a1,1,0,0,1-.42-.09l-2.05-.95-2,.95a1,1,0,0,1-1.42-1L14.74,15l-1.55-1.66a1,1,0,0,1,.55-1.66L16,11.23l1.1-2a1,1,0,0,1,1.75,0l1.1,2,2.22.43a1,1,0,0,1,.76.67,1,1,0,0,1-.22,1L21.12,15l.27,2.24a1,1,0,0,1-.4.93A1,1,0,0,1,20.4,18.34Zm-4.51-5.06.63.68a1,1,0,0,1,.26.8l-.11.92.83-.39a1,1,0,0,1,.85,0l.84.39-.11-.92a1,1,0,0,1,.26-.8l.63-.68-.91-.18a1,1,0,0,1-.68-.5l-.45-.81-.45.81a1,1,0,0,1-.69.5Z"/><path d="M32,19a1,1,0,0,1-.71-.3l-3.57-3.57A3,3,0,1,1,32,10.87h0A2.93,2.93,0,0,1,34.11,10h0a3,3,0,0,1,2.12.89,3,3,0,0,1,0,4.26l-3.54,3.53A1,1,0,0,1,32,19Zm-2.18-7a1,1,0,0,0-.7.29,1,1,0,0,0,0,1.43L32,16.56l2.82-2.83h0a1,1,0,0,0,0-1.43,1,1,0,0,0-.72-.3,1,1,0,0,0-.71.29L32.7,13a1,1,0,0,1-1.41,0l-.71-.72A1.06,1.06,0,0,0,29.85,12Z"/><path d="M48.4,19.34a1,1,0,0,1-.42-.09l-2-.95-2,.95a1,1,0,0,1-1.42-1L42.74,16l-1.55-1.66a1,1,0,0,1,.55-1.66L44,12.23l1.1-2a1,1,0,0,1,1.75,0l1.1,2,2.22.43a1,1,0,0,1,.76.67,1,1,0,0,1-.22,1L49.12,16l.27,2.24a1,1,0,0,1-.4.93A1,1,0,0,1,48.4,19.34Zm-4.51-5.06.63.68a1,1,0,0,1,.26.8l-.11.92.83-.39a1,1,0,0,1,.85,0l.84.39-.11-.92a1,1,0,0,1,.26-.8l.63-.68-.91-.18a1,1,0,0,1-.68-.5l-.45-.81-.45.81a1,1,0,0,1-.69.5Z"/></g></svg>