<svg xmlns="http://www.w3.org/2000/svg" viewBox="0 0 64 64"><title>digital marketing</title><g id="digital_marketing" data-name="digital marketing"><path d="M44,52H7a6,6,0,0,1-6-6,3,3,0,0,1,3-3H22a1,1,0,0,1,.71.29l.7.71H34.59l.7-.71A1,1,0,0,1,36,43h8a1,1,0,0,1,1,1v7A1,1,0,0,1,44,52ZM4,45a.93.93,0,0,0-.69.29A1,1,0,0,0,3,46a4,4,0,0,0,4,4H43V45H36.41l-.7.71A1,1,0,0,1,35,46H23a1,1,0,0,1-.71-.29l-.7-.71Z"/><path d="M35,46H23a1,1,0,0,1-.71-.29l-.7-.71H6a1,1,0,0,1-1-1V12A4,4,0,0,1,9,8H49a4,4,0,0,1,4,4V23a1,1,0,0,1-1,1H46a1,1,0,0,0-1,1V44a1,1,0,0,1-1,1H36.41l-.7.71A1,1,0,0,1,35,46ZM23.41,44H34.59l.7-.71A1,1,0,0,1,36,43h7V25a3,3,0,0,1,3-3h5V12a2,2,0,0,0-2-2H9a2,2,0,0,0-2,2V43H22a1,1,0,0,1,.71.29Z"/><path d="M44,41H11a1,1,0,0,1-1-1V14a1,1,0,0,1,1-1H47a1,1,0,0,1,1,1v9a1,1,0,0,1-1,1H46a1,1,0,0,0-1,1V40A1,1,0,0,1,44,41ZM12,39H43V25a3,3,0,0,1,3-3V15H12Z"/><path d="M60,56H46a3,3,0,0,1-3-3V25a3,3,0,0,1,3-3H60a3,3,0,0,1,3,3V53A3,3,0,0,1,60,56ZM46,24a1,1,0,0,0-1,1V53a1,1,0,0,0,1,1H60a1,1,0,0,0,1-1V25a1,1,0,0,0-1-1Z"/><path d="M54,52H52a1,1,0,0,1,0-2h2a1,1,0,0,1,0,2Z"/><path d="M25,30H22a4,4,0,0,1,0-8h3a1,1,0,0,1,1,1v6A1,1,0,0,1,25,30Zm-3-6a2,2,0,0,0,0,4h2V24Z"/><path d="M31,33a1,1,0,0,1-.45-.11l-6-3A1,1,0,0,1,24,29V23a1,1,0,0,1,.55-.89l6-3A1,1,0,0,1,32,20V32a1,1,0,0,1-.47.85A1,1,0,0,1,31,33Zm-5-4.62,4,2V21.62l-4,2Z"/><path d="M37,27H35a1,1,0,0,1,0-2h2a1,1,0,0,1,0,2Z"/><path d="M35,23a1,1,0,0,1-.89-.55,1,1,0,0,1,.44-1.34l2-1a1,1,0,1,1,.9,1.78l-2,1A.93.93,0,0,1,35,23Z"/><path d="M37,32a.93.93,0,0,1-.45-.11l-2-1a1,1,0,1,1,.9-1.78l2,1a1,1,0,0,1,.44,1.34A1,1,0,0,1,37,32Z"/><path d="M22,34a1,1,0,0,1-1-1V29a1,1,0,0,1,2,0v4A1,1,0,0,1,22,34Z"/><path d="M53,37a5,5,0,1,1,5-5A5,5,0,0,1,53,37Zm0-8a3,3,0,1,0,3,3A3,3,0,0,0,53,29Z"/><path d="M57,41H49a1,1,0,0,1,0-2h8a1,1,0,0,1,0,2Z"/><path d="M57,45H49a1,1,0,0,1,0-2h8a1,1,0,0,1,0,2Z"/></g></svg>