<svg xmlns="http://www.w3.org/2000/svg" viewBox="0 0 64 64"><title>idea</title><g id="idea"><path d="M32.13,63a1,1,0,0,1-.7-.29l-7.13-7A1,1,0,0,1,24,55V48a1,1,0,0,1,1-1H39a1,1,0,0,1,1,1v7a1,1,0,0,1-.29.7l-6.87,7a1,1,0,0,1-.7.3ZM26,54.58l6.12,6,5.88-6V49H26Z"/><path d="M25,56a1,1,0,0,1-.5-1.87l3.5-2a1,1,0,0,1,1,0l3,1.72,3-1.72a1,1,0,0,1,1,0l3.51,2a1,1,0,0,1-1,1.74l-3-1.72-3,1.72a1,1,0,0,1-1,0l-3-1.72-3,1.72A1,1,0,0,1,25,56Z"/><path d="M39.5,49h-15a3.5,3.5,0,0,1,0-7h15a3.5,3.5,0,0,1,0,7Zm-15-5a1.5,1.5,0,0,0,0,3h15a1.5,1.5,0,0,0,0-3Z"/><path d="M39.5,44h-15a3.5,3.5,0,0,1,0-7h15a3.5,3.5,0,0,1,0,7Zm-15-5a1.5,1.5,0,0,0,0,3h15a1.5,1.5,0,0,0,0-3Z"/><path d="M32.13,63a1,1,0,0,1-.7-.29l-2.92-2.87a1,1,0,0,1-.3-.71,1,1,0,0,1,.3-.72,5,5,0,0,1,7.08.1,1,1,0,0,1,0,1.4L32.84,62.7a1,1,0,0,1-.7.3Zm-1.36-3.74,1.35,1.33,1.24-1.27A3.09,3.09,0,0,0,30.77,59.26Z"/><path d="M39,39H25a1,1,0,0,1-1-1,5,5,0,0,0-2.11-4.12A18,18,0,0,1,30,1.11,18,18,0,0,1,42.09,33.89,4.92,4.92,0,0,0,40,38,1,1,0,0,1,39,39ZM25.93,37H38.07A6.84,6.84,0,0,1,41,32.23a16,16,0,1,0-18,0A6.9,6.9,0,0,1,25.93,37Z"/><path d="M10,21H5a1,1,0,0,1,0-2h5a1,1,0,0,1,0,2Z"/><path d="M59,21H54a1,1,0,0,1,0-2h5a1,1,0,0,1,0,2Z"/><path d="M8.62,34.5a1,1,0,0,1-.5-1.87l4.33-2.5a1,1,0,0,1,1,1.74l-4.33,2.5A1,1,0,0,1,8.62,34.5Z"/><path d="M51.05,10a1,1,0,0,1-.5-1.87l4.33-2.5a1,1,0,0,1,1,1.74l-4.33,2.5A1,1,0,0,1,51.05,10Z"/><path d="M13,10a1,1,0,0,1-.5-.13L8.12,7.37a1,1,0,0,1,1-1.74l4.33,2.5A1,1,0,0,1,13,10Z"/><path d="M55.38,34.5a1,1,0,0,1-.5-.13l-4.33-2.5a1,1,0,0,1,1-1.74l4.33,2.5a1,1,0,0,1-.5,1.87Z"/><path d="M30,39a1,1,0,0,1-1-1v-.51a19.36,19.36,0,0,0-5.71-13.78,1,1,0,0,1,1.42-1.42A21.35,21.35,0,0,1,31,37.49V38A1,1,0,0,1,30,39Z"/><path d="M34,39a1,1,0,0,1-1-1v-.51a21.35,21.35,0,0,1,6.29-15.2,1,1,0,0,1,1.42,1.42A19.36,19.36,0,0,0,35,37.49V38A1,1,0,0,1,34,39Z"/><path d="M24,24a1,1,0,0,1-.71-.29,1,1,0,0,1,0-1.42l4-4a1,1,0,0,1,1.41,0L32,21.59l3.3-3.3a1,1,0,0,1,1.41,0l4,4a1,1,0,0,1-1.42,1.42L36,20.41l-3.3,3.3a1,1,0,0,1-1.41,0L28,20.42l-3.29,3.29A1,1,0,0,1,24,24Z"/><path d="M45,20a1,1,0,0,1-1-1,12.23,12.23,0,0,0-.07-1.33,1,1,0,1,1,2-.22A14,14,0,0,1,46,19,1,1,0,0,1,45,20Z"/><path d="M43.53,14a1,1,0,0,1-.89-.54A12,12,0,0,0,32,7a1,1,0,0,1,0-2,14,14,0,0,1,12.42,7.54A1,1,0,0,1,44,13.89,1.07,1.07,0,0,1,43.53,14Z"/></g></svg>