<svg xmlns="http://www.w3.org/2000/svg" viewBox="0 0 64 64"><title>print</title><g id="print"><path d="M55,47H52a1,1,0,0,1-1-1V39H13v7a1,1,0,0,1-1,1H9a5,5,0,0,1-5-5V19a5,5,0,0,1,5-5H55a5,5,0,0,1,5,5V42A5,5,0,0,1,55,47Zm-2-2h2a3,3,0,0,0,3-3V19a3,3,0,0,0-3-3H9a3,3,0,0,0-3,3V42a3,3,0,0,0,3,3h2V38a1,1,0,0,1,1-1H52a1,1,0,0,1,1,1Z"/><path d="M47,16H17a1,1,0,0,1-1-1V5a1,1,0,0,1,1-1H41a1,1,0,0,1,.71.29l6,6A1,1,0,0,1,48,11v4A1,1,0,0,1,47,16ZM18,14H46V11.41L40.59,6H18Z"/><path d="M47,60H17a1,1,0,0,1-1-1V38a1,1,0,0,1,1-1H47a1,1,0,0,1,1,1V59A1,1,0,0,1,47,60ZM18,58H46V39H18Z"/><path d="M17,52H15a4,4,0,0,1-4-4V38a1,1,0,0,1,1-1h5a1,1,0,0,1,1,1V51A1,1,0,0,1,17,52ZM13,39v9a2,2,0,0,0,2,2h1V39Z"/><path d="M49,52H47a1,1,0,0,1-1-1V38a1,1,0,0,1,1-1h5a1,1,0,0,1,1,1V48A4,4,0,0,1,49,52Zm-1-2h1a2,2,0,0,0,2-2V39H48Z"/><path d="M47,12H41a1,1,0,0,1-1-1V5a1,1,0,0,1,.62-.92,1,1,0,0,1,1.09.21l6,6a1,1,0,0,1,.21,1.09A1,1,0,0,1,47,12Zm-5-2h2.59L42,7.41Z"/><path d="M14.5,24h-3a2.5,2.5,0,0,1,0-5h3a2.5,2.5,0,0,1,0,5Zm-3-3a.5.5,0,0,0,0,1h3a.5.5,0,0,0,0-1Z"/><path d="M53,23a2,2,0,1,1,2-2A2,2,0,0,1,53,23Zm0-2Z"/><path d="M46,23a2,2,0,1,1,2-2A2,2,0,0,1,46,23Zm0-2Z"/><path d="M29,51H26a4,4,0,0,1,0-8h3a1,1,0,0,1,1,1v6A1,1,0,0,1,29,51Zm-3-6a2,2,0,0,0,0,4h2V45Z"/><path d="M35,54a1,1,0,0,1-.45-.11l-6-3A1,1,0,0,1,28,50V44a1,1,0,0,1,.55-.89l6-3A1,1,0,0,1,36,41V53a1,1,0,0,1-.47.85A1,1,0,0,1,35,54Zm-5-4.62,4,2V42.62l-4,2Z"/><path d="M41,48H39a1,1,0,0,1,0-2h2a1,1,0,0,1,0,2Z"/><path d="M39,44a1,1,0,0,1-.89-.55,1,1,0,0,1,.44-1.34l2-1a1,1,0,1,1,.9,1.78l-2,1A.93.93,0,0,1,39,44Z"/><path d="M41,53a.93.93,0,0,1-.45-.11l-2-1a1,1,0,1,1,.9-1.78l2,1a1,1,0,0,1,.44,1.34A1,1,0,0,1,41,53Z"/><path d="M26,55a1,1,0,0,1-1-1V50a1,1,0,0,1,2,0v4A1,1,0,0,1,26,55Z"/></g></svg>