<svg xmlns="http://www.w3.org/2000/svg" viewBox="0 0 64 64"><title>target</title><g id="target"><path d="M40,60H8a4,4,0,0,1-4-4V14a4,4,0,0,1,4-4h6a1,1,0,0,1,1,1v3a1,1,0,0,0,.13.49A1,1,0,0,0,16,15h4.59l.7-.71A1,1,0,0,1,22,14h4a1,1,0,0,1,.71.29l.7.71H32a1,1,0,0,0,.87-.5A1.09,1.09,0,0,0,33,14V11a1,1,0,0,1,1-1h6a4,4,0,0,1,4,4V56A4,4,0,0,1,40,60ZM8,12a2,2,0,0,0-2,2V56a2,2,0,0,0,2,2H40a2,2,0,0,0,2-2V14a2,2,0,0,0-2-2H35v2a3,3,0,0,1-3,3H27a1,1,0,0,1-.71-.29l-.7-.71H22.41l-.7.71A1,1,0,0,1,21,17H16a3,3,0,0,1-2.59-1.5A2.92,2.92,0,0,1,13,14V12Z"/><path d="M32,17H27a1,1,0,0,1-.71-.29l-.7-.71H22.41l-.7.71A1,1,0,0,1,21,17H16a3,3,0,0,1-2.59-1.5A2.92,2.92,0,0,1,13,14V11a3,3,0,0,1,3-3h4a4,4,0,0,1,8,0h4a3,3,0,0,1,3,3v3a3,3,0,0,1-3,3Zm-4.59-2H32a1,1,0,0,0,.87-.5A1.09,1.09,0,0,0,33,14V11a1,1,0,0,0-1-1H27a1,1,0,0,1-1-1V8a2,2,0,0,0-4,0V9a1,1,0,0,1-1,1H16a1,1,0,0,0-1,1v3a1,1,0,0,0,.13.49A1,1,0,0,0,16,15h4.59l.7-.71A1,1,0,0,1,22,14h4a1,1,0,0,1,.71.29Z"/><path d="M38,55H10a1,1,0,0,1-1-1V15a1,1,0,0,1,1-1h4.27a1,1,0,0,1,.86.5A1,1,0,0,0,16,15h4.59l.7-.71A1,1,0,0,1,22,14h4a1,1,0,0,1,.71.29l.7.71H32a1,1,0,0,0,.87-.5,1,1,0,0,1,.86-.5H38a1,1,0,0,1,1,1V54A1,1,0,0,1,38,55ZM11,53H37V16H34.23A3,3,0,0,1,32,17H27a1,1,0,0,1-.71-.29l-.7-.71H22.41l-.7.71A1,1,0,0,1,21,17H16a3,3,0,0,1-2.23-1H11Z"/><path d="M59,37H49a1,1,0,0,1-.89-.55l-3-6a1,1,0,0,1,0-.9l3-6A1,1,0,0,1,49,23H59a1,1,0,0,1,.89,1.45L57.12,30l2.78,5.61a1,1,0,0,1,0,1A1,1,0,0,1,59,37Zm-9.38-2h7.77L55.1,30.39a1,1,0,0,1,0-.89L57.38,25H49.62l-2.5,5Z"/><path d="M24,41A11,11,0,1,1,35,30,11,11,0,0,1,24,41Zm0-20a9,9,0,1,0,9,9A9,9,0,0,0,24,21Z"/><path d="M24,36a6,6,0,1,1,6-6A6,6,0,0,1,24,36Zm0-10a4,4,0,1,0,4,4A4,4,0,0,0,24,26Z"/><path d="M46,31H24a1,1,0,0,1,0-2H46a1,1,0,0,1,0,2Z"/><path d="M24,32a2,2,0,1,1,2-2A2,2,0,0,1,24,32Zm0-2h0Zm0,0h0Zm0,0h0Zm0,0h0Zm0,0h0Zm0,0h0Zm0,0h0Zm0,0h0Z"/><path d="M33,45H15a1,1,0,0,1,0-2H33a1,1,0,0,1,0,2Z"/><path d="M33,49H15a1,1,0,0,1,0-2H33a1,1,0,0,1,0,2Z"/></g></svg>